<svg width="20" height="22" viewBox="0 0 20 22" fill="none" xmlns="http://www.w3.org/2000/svg">
<path d="M11.3292 1.34073C10.5507 0.886425 9.5879 0.886425 8.8094 1.34073L2.2401 5.17373C1.4722 5.62173 1 6.44392 1 7.33302V15.0358C1 15.9249 1.4722 16.7471 2.2401 17.1951L8.8094 21.0282C9.5879 21.4824 10.5507 21.4824 11.3292 21.0281L17.8984 17.1951C18.6663 16.7471 19.1385 15.9249 19.1385 15.0358V7.33302C19.1385 6.44392 18.6663 5.62173 17.8984 5.17373L11.3292 1.34073Z" fill="white" stroke="#0088FF"/>
<path d="M12.9895 8H12.9895C12.443 8 12 8.44301 12 8.98949V13.0105C12 13.557 12.443 14 12.9895 14C13.536 14 13.979 13.557 13.979 13.0105V8.98949C13.979 8.44301 13.536 8 12.9895 8Z" fill="#0088FF"/>
<path d="M7.9895 8H7.98949C7.44301 8 7 8.44301 7 8.98949V13.0105C7 13.557 7.44301 14 7.9895 14C8.53598 14 8.97899 13.557 8.97899 13.0105V8.98949C8.97899 8.44301 8.53598 8 7.9895 8Z" fill="#0088FF"/>
</svg>
